<svg height="512pt" viewBox="0 0 512 512" width="512pt" xmlns="http://www.w3.org/2000/svg"><path d="m310.375 7.605469c134.203125 0 194.019531 96.304687 194.019531 276.769531v219.734375h-248.480469.171876-248.480469s0-39.269531 0-219.734375 59.816406-276.769531 194.019531-276.769531zm0 0" fill="#f96eb3"/><path d="m253.707031 503.816406v.292969h-246.101562s0-39.265625 0-219.734375c0-180.464844 59.828125-276.769531 194.019531-276.769531-48.328125 19.070312-38.191406 88.894531-12.53125 114.554687 0 19.820313 29.628906 70.953125 9.027344 80.789063-32.078125 15.328125-73.097656 28.257812-73.097656 69.003906l39.339843 58.757813c0 97.28125 89.34375 173.398437 89.34375 173.105468zm0 0" fill="#d83a6f"/><path d="m433.539062 211.378906v113.207032c0 98.292968-79.164062 179.1875-177.457031 179.238281-.484375 0-.960937 0-1.4375-.007813h-.945312c-96.996094-1.238281-175.234375-80.25-175.234375-177.527344v-94.632812c0-40.746094 41.019531-53.675781 73.101562-69.003906 20.601563-9.835938 37.519532-20.671875 37.519532-40.492188 103.261718 103.261719 235.441406-2.027344 244.453124 89.21875zm0 0" fill="#75bc83"/><path d="m254.644531 503.816406h-.945312c-96.996094-1.238281-175.234375-80.25-175.234375-177.527344v-94.632812c0-40.746094 41.019531-53.675781 73.101562-69.003906v163.636718c0 97.277344 46.015625 176.289063 103.078125 177.527344zm0 0" fill="#279e5c"/><path d="m324.652344 345.324219c6.09375-6.535157 13.878906-11.664063 22.984375-14.613281 9.105469-2.945313 18.421875-3.355469 27.1875-1.628907 13.019531-13.964843 18.285156-34.378906 11.988281-53.832031-9.242188-28.5625-39.890625-44.21875-68.449219-34.972656-28.558593 9.242187-44.21875 39.890625-34.972656 68.449218 6.296875 19.453126 22.527344 32.910157 41.261719 36.597657zm0 0" fill="#fff"/><path d="m187.347656 345.324219c-6.09375-6.535157-13.878906-11.664063-22.984375-14.613281-9.105469-2.945313-18.421875-3.355469-27.191406-1.628907-13.019531-13.964843-18.28125-34.378906-11.984375-53.832031 9.242188-28.5625 39.890625-44.21875 68.449219-34.972656 28.558593 9.242187 44.214843 39.890625 34.972656 68.449218-6.296875 19.453126-22.527344 32.910157-41.261719 36.597657zm0 0" fill="#fff"/><path d="m352.425781 292.152344c0 10.148437-8.226562 18.378906-18.375 18.378906-10.148437 0-18.375-8.230469-18.375-18.378906 0-10.148438 8.226563-18.375 18.375-18.375 10.148438 0 18.375 8.226562 18.375 18.375zm0 0" fill="#555a80"/><path d="m196.324219 292.152344c0 10.148437-8.226563 18.378906-18.375 18.378906-10.148438 0-18.375-8.230469-18.375-18.378906 0-10.148438 8.226562-18.375 18.375-18.375 10.148437 0 18.375 8.226562 18.375 18.375zm0 0" fill="#555a80"/><g fill="#1a1a1a"><path d="m323.183594 352.785156c.488281.097656.980468.144532 1.46875.144532 2.085937 0 4.109375-.863282 5.5625-2.421876 5.386718-5.777343 12.21875-10.121093 19.761718-12.5625 7.546876-2.445312 15.632813-2.929687 23.378907-1.402343 2.582031.507812 5.242187-.351563 7.035156-2.277344 15.347656-16.464844 20.578125-39.976563 13.660156-61.363281-3.332031-10.289063-9.125-19.109375-16.507812-26.03125.742187-.949219 1.644531-1.945313 2.707031-2.851563 4.015625-3.425781 8.445312-4.050781 13.953125-1.964843 3.921875 1.484374 8.316406-.492188 9.800781-4.417969 1.488282-3.929688-.488281-8.320313-4.417968-9.804688-10.886719-4.125-21.453126-2.3125-29.757813 5.101563-1.820313 1.625-3.34375 3.351562-4.578125 4.972656-4.140625-2.308594-8.539062-4.148438-13.109375-5.464844 2.195313-6.597656 7.042969-16.652344 16.222656-16.765625 4.199219-.050781 7.5625-3.5 7.511719-7.695312-.054688-4.167969-3.445312-7.511719-7.601562-7.511719-.03125 0-.066407 0-.097657 0-11.28125.140625-20.5625 6.546875-26.839843 18.535156-2.097657 4.011719-3.5 8-4.386719 11.058594-5.09375-.15625-10.269531.320312-15.417969 1.480469-3.621094-14.070313 4.863281-23.777344 12.320312-27.140625 3.828126-1.722656 5.53125-6.226563 3.804688-10.054688s-6.230469-5.535156-10.054688-3.808594c-15.285156 6.890626-26.613281 24.878907-20.4375 46.140626-11.683593 5.871093-21.175781 15.253906-27.234374 27.117187-7.53125 14.738281-8.871094 31.527344-3.773438 47.273437 6.921875 21.382813 24.941406 37.367188 47.027344 41.714844zm-29.710938-82.066406c5.679688-11.121094 15.351563-19.363281 27.230469-23.207031 4.765625-1.542969 9.605469-2.277344 14.367187-2.277344 19.726563 0 38.113282 12.597656 44.507813 32.355469 4.816406 14.882812 1.828125 31.136718-7.757813 43.324218-8.882812-1.078124-17.96875-.207031-26.523437 2.5625-8.558594 2.769532-16.429687 7.390626-23 13.46875-14.910156-4.257812-26.855469-15.675781-31.671875-30.5625-3.847656-11.878906-2.835938-24.546874 2.847656-35.664062zm0 0"/><path d="m334.050781 318.132812c14.324219 0 25.980469-11.652343 25.980469-25.980468 0-14.324219-11.65625-25.980469-25.980469-25.980469-14.328125 0-25.980469 11.65625-25.980469 25.980469 0 14.328125 11.652344 25.980468 25.980469 25.980468zm0-36.75c5.9375 0 10.773438 4.832032 10.773438 10.769532 0 5.941406-4.835938 10.773437-10.773438 10.773437-5.941406 0-10.773437-4.832031-10.773437-10.773437 0-5.9375 4.832031-10.769532 10.773437-10.769532zm0 0"/><path d="m177.949219 318.132812c14.324219 0 25.980469-11.652343 25.980469-25.980468 0-14.324219-11.65625-25.980469-25.980469-25.980469s-25.980469 11.65625-25.980469 25.980469c0 14.328125 11.65625 25.980468 25.980469 25.980468zm0-36.75c5.9375 0 10.773437 4.832032 10.773437 10.769532 0 5.941406-4.835937 10.773437-10.773437 10.773437s-10.773438-4.832031-10.773438-10.773437c0-5.9375 4.832031-10.769532 10.773438-10.769532zm0 0"/><path d="m117.800781 242.054688c5.5-2.082032 9.933594-1.460938 13.945313 1.964843 1.054687.898438 1.953125 1.886719 2.691406 2.828125-7.535156 7.066406-13.214844 15.957032-16.484375 26.058594-6.921875 21.386719-1.6875 44.898438 13.65625 61.363281 1.792969 1.921875 4.457031 2.78125 7.03125 2.273438 7.753906-1.527344 15.835937-1.039063 23.382813 1.402343 7.542968 2.441407 14.378906 6.785157 19.761718 12.5625 1.453125 1.5625 3.476563 2.421876 5.5625 2.421876.488282 0 .980469-.046876 1.46875-.144532 22.085938-4.347656 40.105469-20.332031 47.027344-41.71875 5.097656-15.742187 3.757812-32.53125-3.773438-47.269531-6.058593-11.863281-15.550781-21.246094-27.234374-27.117187 6.175781-21.257813-5.152344-39.25-20.4375-46.140626-3.824219-1.726562-8.332032-.019531-10.058594 3.808594-1.722656 3.828125-.019532 8.332032 3.808594 10.054688 7.457031 3.363281 15.9375 13.070312 12.320312 27.136718-5.105469-1.15625-10.28125-1.664062-15.425781-1.515624-.890625-3.050782-2.289063-7.027344-4.378907-11.019532-6.277343-11.984375-15.558593-18.394531-26.839843-18.535156-.03125 0-.0625 0-.097657 0-4.15625 0-7.546874 3.34375-7.601562 7.511719-.050781 4.199219 3.3125 7.644531 7.511719 7.695312 9.21875.113281 14.042969 10.121094 16.226562 16.726563-3.808593 1.097656-7.542969 2.566406-11.15625 4.410156-.667969.339844-1.320312.707031-1.972656 1.070312-1.234375-1.617187-2.75-3.332031-4.5625-4.953124-8.300781-7.410157-18.867187-9.222657-29.757813-5.097657-3.929687 1.484375-5.90625 5.875-4.417968 9.804688 1.484375 3.925781 5.875 5.90625 9.804687 4.417969zm73.496094 5.457031c11.878906 3.84375 21.550781 12.085937 27.230469 23.207031 5.683594 11.117188 6.691406 23.785156 2.847656 35.664062-4.816406 14.886719-16.761719 26.304688-31.671875 30.5625-6.570313-6.078124-14.441406-10.699218-23-13.46875-6.183594-2-12.640625-3.011718-19.101563-3.011718-2.480468 0-4.960937.148437-7.425781.449218-9.582031-12.1875-12.570312-28.441406-7.753906-43.324218 3.84375-11.882813 12.085937-21.550782 23.207031-27.234375 11.117188-5.679688 23.785156-6.691407 35.667969-2.84375zm0 0"/><path d="m463.996094 74.039062c-2.359375-3.472656-7.089844-4.375-10.5625-2.011718-3.472656 2.363281-4.371094 7.09375-2.007813 10.566406 30.101563 44.242188 45.367188 112.132812 45.367188 201.78125v212.132812h-26.625v-79.136718c0-4.199219-3.402344-7.605469-7.605469-7.605469-4.199219 0-7.601562 3.40625-7.601562 7.605469v79.136718h-23.65625v-45.683593c0-4.199219-3.402344-7.601563-7.605469-7.601563-4.199219 0-7.601563 3.402344-7.601563 7.601563v45.683593h-87.625c66.167969-28.527343 112.667969-94.855468 112.667969-171.921874v-113.207032c0-.25-.011719-.5-.035156-.746094-2.289063-23.167968-12.347657-37.488281-30.75-43.777343-15.589844-5.328125-35.40625-4.445313-58.351563-3.425781-47.304687 2.101562-106.179687 4.714843-157.539062-46.648438-12.980469-12.976562-23.199219-41.84375-17.835938-67.675781 2.363282-11.386719 8.898438-26.371094 26.511719-33.898438h107.234375c54.28125 0 95.398438 15.742188 125.695312 48.125 2.867188 3.066407 7.679688 3.230469 10.75.359375 3.066407-2.867187 3.226563-7.679687.355469-10.746094-32.867187-35.132812-78.894531-52.945312-136.800781-52.945312h-108.75c-68.511719 0-120.195312 24.910156-153.621094 74.039062-32.300781 47.472657-48.003906 116.273438-48.003906 210.335938v219.734375c0 4.199219 3.402344 7.605469 7.605469 7.605469h496.789062c4.203125 0 7.605469-3.40625 7.605469-7.605469v-219.734375c0-94.0625-15.703125-162.863281-48.003906-210.335938zm-448.789063 210.335938c0-89.648438 15.265625-157.539062 45.367188-201.78125 26.546875-39.015625 64.421875-60.761719 115.28125-66.078125-6.898438 7.898437-11.6875 17.800781-14.117188 29.496094-5.578125 26.875 2.8125 60.074219 19.605469 78.988281-1 9.816406-7.824219 18.746094-33.058594 30.789062-3.847656 1.839844-7.769531 3.617188-11.921875 5.5-15.203125 6.890626-30.921875 14.015626-43.300781 24.40625-14.941406 12.542969-22.199219 27.574219-22.199219 45.957032v15.207031c0 4.199219 3.402344 7.605469 7.601563 7.605469 4.199218 0 7.605468-3.40625 7.605468-7.605469v-15.203125c0-30.871094 27.480469-43.328125 56.574219-56.515625 4.039063-1.832031 8.214844-3.722656 12.195313-5.625 16.804687-8.023437 32.636718-17.5625 38.960937-32.59375 53.699219 46.371094 114.070313 43.6875 158.878907 41.699219 48.140624-2.140625 69.671874-1.617188 73.253906 33.140625v112.824219c0 94.589843-76.195313 171.585937-169.847656 171.636718-.441407 0-.859376 0-1.285157-.007812-.050781-.003906-.105469-.003906-.15625-.003906h-.847656c-44.925781-.570313-87.074219-18.5-118.679687-50.488282-31.628907-32.011718-49.046876-74.425781-49.046876-119.433594v-54.078124c0-4.199219-3.40625-7.605469-7.605468-7.605469-4.199219 0-7.601563 3.40625-7.601563 7.605469v54.078124c0 49.035157 18.976563 95.246094 53.4375 130.125 17.070313 17.273438 36.964844 30.78125 58.664063 40.09375h-87.0625v-45.683593c0-4.199219-3.402344-7.601563-7.601563-7.601563-4.203125 0-7.605469 3.402344-7.605469 7.601563v45.683593h-23.65625v-79.136718c0-4.199219-3.402343-7.605469-7.601562-7.605469-4.203125 0-7.605469 3.40625-7.605469 7.605469v79.136718h-26.625zm0 0"/><path d="m230.015625 384.613281v12.164063h-21.550781v-12.164063c0-4.199219-3.402344-7.605469-7.605469-7.605469-4.199219 0-7.601563 3.40625-7.601563 7.605469v12.164063h-9.75c-4.199218 0-7.601562 3.40625-7.601562 7.605468 0 4.199219 3.402344 7.605469 7.601562 7.605469h9.75v12.164063c0 4.199218 3.402344 7.605468 7.601563 7.605468 4.203125 0 7.605469-3.40625 7.605469-7.605468v-12.164063h21.550781v12.164063c0 4.199218 3.402344 7.605468 7.605469 7.605468 4.199218 0 7.601562-3.40625 7.601562-7.605468v-12.164063h21.550782v12.164063c0 4.199218 3.40625 7.605468 7.605468 7.605468 4.199219 0 7.605469-3.40625 7.605469-7.605468v-12.164063h21.550781v12.164063c0 4.199218 3.402344 7.605468 7.605469 7.605468 4.199219 0 7.601563-3.40625 7.601563-7.605468v-12.164063h9.75c4.199218 0 7.601562-3.40625 7.601562-7.605469 0-4.199218-3.402344-7.605468-7.601562-7.605468h-9.75v-12.164063c0-4.199219-3.402344-7.605469-7.601563-7.605469-4.203125 0-7.605469 3.40625-7.605469 7.605469v12.164063h-21.550781v-12.164063c0-4.199219-3.40625-7.605469-7.605469-7.605469-4.199218 0-7.605468 3.40625-7.605468 7.605469v12.164063h-21.550782v-12.164063c0-4.199219-3.402344-7.605469-7.601562-7.605469-4.203125 0-7.605469 3.40625-7.605469 7.605469zm0 0"/></g></svg>